<?xml version="1.0" standalone="no"?>
<!DOCTYPE svg PUBLIC "-//W3C//DTD SVG 20010904//EN" "http://www.w3.org/TR/2001/REC-SVG-20010904/DTD/svg10.dtd">
<svg version="1.0" xmlns="http://www.w3.org/2000/svg" width="544.000000pt" height="458.000000pt"
  viewBox="0 0 544.000000 458.000000" preserveAspectRatio="xMidYMid meet">

  <g transform="translate(0.000000,458.000000) scale(0.100000,-0.100000)" fill="#000000" stroke="none">
    <path d="M975 3071 c-211 -101 -454 -380 -577 -664 -72 -166 -91 -246 -92
-392 -1 -116 1 -134 21 -171 36 -67 75 -94 138 -94 95 0 197 60 370 219 61 55
112 101 115 101 3 0 6 -27 7 -60 2 -94 53 -180 93 -155 14 9 12 47 -5 88 -19
46 -19 91 1 260 18 156 16 206 -8 221 -25 15 -116 -6 -210 -51 -90 -42 -123
-74 -107 -104 5 -10 15 -19 22 -19 7 0 53 20 102 44 118 59 135 64 135 36 0
-115 -143 -288 -357 -433 -102 -70 -152 -87 -186 -64 -53 35 -70 155 -42 300
42 219 163 448 343 650 93 105 158 160 234 198 147 74 232 34 182 -86 -14 -33
-14 -40 -1 -52 36 -37 97 39 97 119 0 122 -136 176 -275 109z" />
    <path d="M2791 3090 c-162 -34 -245 -89 -196 -130 11 -9 31 -5 97 21 73 29 95
33 178 33 141 1 196 -35 166 -109 -16 -37 -180 -218 -204 -223 -17 -5 -14 7
39 141 44 110 45 119 23 142 -15 15 -18 15 -36 -1 -10 -10 -28 -38 -39 -63
-32 -71 -330 -886 -396 -1081 l-58 -173 -41 -19 c-23 -10 -89 -30 -146 -44
-100 -26 -107 -26 -138 -10 -60 30 -92 12 -69 -38 14 -31 49 -46 103 -46 49 0
239 54 375 106 179 69 557 261 671 341 63 44 150 129 188 185 40 58 66 155 57
209 -21 121 -170 230 -374 273 -40 8 -75 17 -78 20 -3 3 29 42 71 87 98 104
136 168 136 231 0 59 -30 97 -101 127 -58 25 -162 35 -228 21z m205 -570 c249
-59 334 -167 260 -327 -61 -131 -229 -248 -613 -431 -122 -58 -173 -74 -173
-54 0 7 204 596 267 771 l27 74 75 -7 c42 -3 113 -15 157 -26z" />
    <path d="M3744 2842 c-15 -10 -169 -279 -209 -366 -73 -157 -91 -255 -60 -315
34 -67 115 -54 255 38 34 23 63 41 65 41 2 0 7 -16 11 -35 22 -121 191 -112
283 15 41 57 54 102 49 173 -4 52 -9 64 -36 88 -39 35 -92 38 -139 9 -18 -11
-70 -56 -115 -101 -118 -118 -245 -194 -292 -176 -50 19 28 218 189 488 29 47
55 94 59 104 12 32 -29 58 -60 37z m310 -428 c15 -40 5 -93 -26 -140 -60 -88
-138 -110 -138 -38 0 95 138 245 164 178z" />
    <path d="M4438 2530 c-102 -32 -192 -142 -205 -250 -5 -45 -3 -51 25 -79 48
-49 96 -41 175 29 26 23 50 41 52 39 5 -6 -81 -188 -129 -274 -50 -88 -192
-327 -279 -467 -37 -59 -67 -116 -67 -127 0 -25 25 -44 47 -36 10 3 86 86 168
183 192 225 518 551 668 667 120 93 143 124 114 152 -14 15 -18 15 -40 0 -89
-58 -260 -209 -431 -379 -109 -109 -200 -197 -202 -195 -2 2 20 41 47 87 105
174 228 465 231 546 1 36 -22 78 -51 93 -28 15 -93 21 -123 11z m95 -76 c12
-12 -25 -66 -93 -135 -73 -75 -100 -84 -125 -44 -26 42 30 131 107 168 33 16
99 23 111 11z" />
    <path d="M1349 2482 c-69 -44 -136 -140 -153 -217 -9 -41 15 -105 48 -129 61
-46 178 -6 239 81 41 57 55 97 56 156 2 121 -88 173 -190 109z m105 -84 c26
-74 -86 -226 -149 -202 -40 16 -2 136 62 201 41 41 73 41 87 1z" />
  </g>
</svg>